<svg width="411" height="720" xmlns="http://www.w3.org/2000/svg" xmlns:xlink="http://www.w3.org/1999/xlink" overflow="hidden"><defs><clipPath id="clip0"><rect x="0" y="0" width="411" height="720"/></clipPath><linearGradient x1="205" y1="316.743" x2="205" y2="347.718" gradientUnits="userSpaceOnUse" spreadMethod="reflect" id="fill1"><stop offset="0" stop-color="#9C510C"/><stop offset="1" stop-color="#E87511"/></linearGradient></defs><g clip-path="url(#clip0)"><rect x="0" y="0" width="411" height="720.415" fill="#FFFFFF"/><path d="M0 272.779 164.866 0 329.732 272.779Z" fill="#767171" fill-rule="evenodd" transform="matrix(1.00081 0 0 -1 40 385.687)"/><path d="M154.5 445.139C154.5 350.775 177.557 274.277 206 274.277 234.443 274.277 257.5 350.775 257.5 445.139 257.5 539.503 234.443 616 206 616 177.557 616 154.5 539.503 154.5 445.139Z" stroke="#000000" stroke-width="1.33442" stroke-miterlimit="8" fill="#E87511" fill-rule="evenodd"/><path d="M0 69.9432 36.97 0 73.9399 69.9432Z" fill="#767171" fill-rule="evenodd" transform="matrix(-1.00081 1.22465e-16 1.22564e-16 1 241 249.797)"/><rect x="167" y="262.787" width="74" height="56.9538" fill="#767171"/><rect x="168" y="316.743" width="74.0001" height="30.9749" fill="url(#fill1)"/><path d="M0 186.848 164.866 0 329.732 186.848Z" fill="#D9D9D9" fill-rule="evenodd" transform="matrix(1.00081 0 0 -1 40 299.757)"/><path d="M0 185.849 160.37 0 320.74 185.849Z" fill="#767171" fill-rule="evenodd" transform="matrix(1.00081 0 0 -1 45 309.749)"/><path d="M0 0 96.1623 0.000104987" stroke="#000000" stroke-width="4.33333" stroke-miterlimit="8" fill="none" fill-rule="evenodd" transform="matrix(-1.00081 0 0 1 254.24 511.585)"/><path d="M0 0 96.1623 0.000104987" stroke="#000000" stroke-width="4.33333" stroke-miterlimit="8" fill="none" fill-rule="evenodd" transform="matrix(-1.00081 0 0 1 254.24 502.592)"/><path d="M0 0 96.1623 0.000104987" stroke="#000000" stroke-width="4.33333" stroke-miterlimit="8" fill="none" fill-rule="evenodd" transform="matrix(-1.00081 0 0 1 254.24 493.599)"/><path d="M0 0 96.1623 0.000104987" stroke="#000000" stroke-width="4.33333" stroke-miterlimit="8" fill="none" fill-rule="evenodd" transform="matrix(-1.00081 0 0 1 254.24 484.607)"/><path d="M0 0 96.1623 0.000104987" stroke="#000000" stroke-width="4.33333" stroke-miterlimit="8" fill="none" fill-rule="evenodd" transform="matrix(-1.00081 0 0 1 254.24 474.615)"/><path d="M0 0 96.1623 0.000104987" stroke="#000000" stroke-width="4.33333" stroke-miterlimit="8" fill="none" fill-rule="evenodd" transform="matrix(-1.00081 0 0 1 254.24 465.622)"/><path d="M0 0 96.1623 0.000104987" stroke="#000000" stroke-width="4.33333" stroke-miterlimit="8" fill="none" fill-rule="evenodd" transform="matrix(-1.00081 0 0 1 254.24 456.629)"/><path d="M0 0 96.1623 0.000104987" stroke="#000000" stroke-width="4.33333" stroke-miterlimit="8" fill="none" fill-rule="evenodd" transform="matrix(-1.00081 0 0 1 254.24 447.637)"/><path d="M0 0 96.1623 0.000104987" stroke="#000000" stroke-width="4.33333" stroke-miterlimit="8" fill="none" fill-rule="evenodd" transform="matrix(-1.00081 0 0 1 254.24 438.644)"/><path d="M0 0 96.1623 0.000104987" stroke="#000000" stroke-width="4.33333" stroke-miterlimit="8" fill="none" fill-rule="evenodd" transform="matrix(-1.00081 0 0 1 254.24 428.652)"/><path d="M0 0 96.1623 0.000104987" stroke="#000000" stroke-width="4.33333" stroke-miterlimit="8" fill="none" fill-rule="evenodd" transform="matrix(-1.00081 0 0 1 254.24 419.659)"/><text fill="#FFFFFF" font-family="Cooper,Cooper_MSFontService,sans-serif" font-weight="900" font-size="24" transform="matrix(1 0 0 0.999189 187.552 205)">BS<tspan font-size="24" x="-16.1798" y="29.0235">QUIZ</tspan></text></g></svg>